<mxfile host="app.diagrams.net" modified="2022-06-06T11:52:43.749Z" agent="5.0 (Macintosh; Intel Mac OS X 10_15_7) AppleWebKit/537.36 (KHTML, like Gecko) Chrome/102.0.5005.61 Safari/537.36" etag="4-pN3Lgqg5O2S-aHPquq" version="19.0.0" type="github">
  <diagram id="kgpKYQtTHZ0yAKxKKP6v" name="Page-1">
    <mxGraphModel dx="1249" dy="661" grid="1" gridSize="10" guides="1" tooltips="1" connect="1" arrows="1" fold="1" page="1" pageScale="1" pageWidth="850" pageHeight="1100" math="0" shadow="0">
      <root>
        <mxCell id="0" />
        <mxCell id="1" parent="0" />
        <mxCell id="3nuBFxr9cyL0pnOWT2aG-1" value="淘菜菜平台" style="shape=umlLifeline;perimeter=lifelinePerimeter;container=1;collapsible=0;recursiveResize=0;rounded=0;shadow=0;strokeWidth=1;" parent="1" vertex="1">
          <mxGeometry x="120" y="80" width="100" height="310" as="geometry" />
        </mxCell>
        <mxCell id="3nuBFxr9cyL0pnOWT2aG-2" value="" style="points=[];perimeter=orthogonalPerimeter;rounded=0;shadow=0;strokeWidth=1;" parent="3nuBFxr9cyL0pnOWT2aG-1" vertex="1">
          <mxGeometry x="45" y="70" width="10" height="110" as="geometry" />
        </mxCell>
        <mxCell id="3nuBFxr9cyL0pnOWT2aG-3" value="查看报表" style="verticalAlign=bottom;startArrow=oval;endArrow=block;startSize=8;shadow=0;strokeWidth=1;" parent="3nuBFxr9cyL0pnOWT2aG-1" target="3nuBFxr9cyL0pnOWT2aG-2" edge="1">
          <mxGeometry relative="1" as="geometry">
            <mxPoint x="-15" y="70" as="sourcePoint" />
          </mxGeometry>
        </mxCell>
        <mxCell id="IaG24eW45NkP1XahKQve-6" value="" style="points=[];perimeter=orthogonalPerimeter;rounded=0;shadow=0;strokeWidth=1;" vertex="1" parent="3nuBFxr9cyL0pnOWT2aG-1">
          <mxGeometry x="45" y="229" width="10" height="50" as="geometry" />
        </mxCell>
        <mxCell id="IaG24eW45NkP1XahKQve-7" value="" style="verticalAlign=bottom;startArrow=oval;endArrow=block;startSize=8;shadow=0;strokeWidth=1;entryX=0;entryY=-0.04;entryDx=0;entryDy=0;entryPerimeter=0;" edge="1" parent="3nuBFxr9cyL0pnOWT2aG-1" target="IaG24eW45NkP1XahKQve-5">
          <mxGeometry relative="1" as="geometry">
            <mxPoint x="55" y="229" as="sourcePoint" />
            <mxPoint x="115" y="229" as="targetPoint" />
          </mxGeometry>
        </mxCell>
        <mxCell id="3nuBFxr9cyL0pnOWT2aG-5" value="劳动力" style="shape=umlLifeline;perimeter=lifelinePerimeter;container=1;collapsible=0;recursiveResize=0;rounded=0;shadow=0;strokeWidth=1;" parent="1" vertex="1">
          <mxGeometry x="300" y="80" width="120" height="300" as="geometry" />
        </mxCell>
        <mxCell id="3nuBFxr9cyL0pnOWT2aG-6" value="" style="points=[];perimeter=orthogonalPerimeter;rounded=0;shadow=0;strokeWidth=1;" parent="3nuBFxr9cyL0pnOWT2aG-5" vertex="1">
          <mxGeometry x="55" y="70" width="10" height="30" as="geometry" />
        </mxCell>
        <mxCell id="IaG24eW45NkP1XahKQve-9" value="&lt;font style=&quot;font-size: 6px;&quot;&gt;菜单权限校验&lt;/font&gt;" style="text;html=1;align=center;verticalAlign=middle;resizable=0;points=[];autosize=1;strokeColor=none;fillColor=none;rotation=90;" vertex="1" parent="3nuBFxr9cyL0pnOWT2aG-5">
          <mxGeometry x="35" y="90" width="90" height="20" as="geometry" />
        </mxCell>
        <mxCell id="IaG24eW45NkP1XahKQve-10" value="" style="points=[];perimeter=orthogonalPerimeter;rounded=0;shadow=0;strokeWidth=1;" vertex="1" parent="3nuBFxr9cyL0pnOWT2aG-5">
          <mxGeometry x="55" y="110" width="10" height="60" as="geometry" />
        </mxCell>
        <mxCell id="3nuBFxr9cyL0pnOWT2aG-7" value="失败" style="verticalAlign=bottom;endArrow=open;dashed=1;endSize=8;exitX=0;exitY=0.95;shadow=0;strokeWidth=1;" parent="1" source="3nuBFxr9cyL0pnOWT2aG-6" target="3nuBFxr9cyL0pnOWT2aG-2" edge="1">
          <mxGeometry relative="1" as="geometry">
            <mxPoint x="275" y="236" as="targetPoint" />
          </mxGeometry>
        </mxCell>
        <mxCell id="3nuBFxr9cyL0pnOWT2aG-8" value="获取链接" style="verticalAlign=bottom;endArrow=block;entryX=0;entryY=0;shadow=0;strokeWidth=1;" parent="1" source="3nuBFxr9cyL0pnOWT2aG-2" target="3nuBFxr9cyL0pnOWT2aG-6" edge="1">
          <mxGeometry relative="1" as="geometry">
            <mxPoint x="275" y="160" as="sourcePoint" />
          </mxGeometry>
        </mxCell>
        <mxCell id="IaG24eW45NkP1XahKQve-1" value="Actor" style="shape=umlActor;verticalLabelPosition=bottom;verticalAlign=top;html=1;" vertex="1" parent="1">
          <mxGeometry x="80" y="140" width="10" height="20" as="geometry" />
        </mxCell>
        <mxCell id="IaG24eW45NkP1XahKQve-4" value="fbi" style="shape=umlLifeline;perimeter=lifelinePerimeter;container=1;collapsible=0;recursiveResize=0;rounded=0;shadow=0;strokeWidth=1;" vertex="1" parent="1">
          <mxGeometry x="450" y="80" width="100" height="300" as="geometry" />
        </mxCell>
        <mxCell id="IaG24eW45NkP1XahKQve-5" value="" style="points=[];perimeter=orthogonalPerimeter;rounded=0;shadow=0;strokeWidth=1;" vertex="1" parent="IaG24eW45NkP1XahKQve-4">
          <mxGeometry x="45" y="229" width="10" height="50" as="geometry" />
        </mxCell>
        <mxCell id="IaG24eW45NkP1XahKQve-13" value="获取所管理的仓信息" style="verticalAlign=bottom;endArrow=block;entryX=0.1;entryY=0.167;shadow=0;strokeWidth=1;entryDx=0;entryDy=0;entryPerimeter=0;" edge="1" parent="IaG24eW45NkP1XahKQve-4" target="IaG24eW45NkP1XahKQve-12">
          <mxGeometry relative="1" as="geometry">
            <mxPoint x="-85" y="110" as="sourcePoint" />
            <mxPoint x="95" y="110" as="targetPoint" />
          </mxGeometry>
        </mxCell>
        <mxCell id="IaG24eW45NkP1XahKQve-16" value="" style="verticalAlign=bottom;startArrow=oval;endArrow=block;startSize=8;shadow=0;strokeWidth=1;" edge="1" parent="IaG24eW45NkP1XahKQve-4" target="3nuBFxr9cyL0pnOWT2aG-1">
          <mxGeometry relative="1" as="geometry">
            <mxPoint x="45" y="272" as="sourcePoint" />
            <mxPoint x="365" y="270" as="targetPoint" />
          </mxGeometry>
        </mxCell>
        <mxCell id="IaG24eW45NkP1XahKQve-11" value="数据中台" style="shape=umlLifeline;perimeter=lifelinePerimeter;container=1;collapsible=0;recursiveResize=0;rounded=0;shadow=0;strokeWidth=1;" vertex="1" parent="1">
          <mxGeometry x="580" y="80" width="100" height="300" as="geometry" />
        </mxCell>
        <mxCell id="IaG24eW45NkP1XahKQve-12" value="" style="points=[];perimeter=orthogonalPerimeter;rounded=0;shadow=0;strokeWidth=1;" vertex="1" parent="IaG24eW45NkP1XahKQve-11">
          <mxGeometry x="45" y="100" width="10" height="60" as="geometry" />
        </mxCell>
        <mxCell id="IaG24eW45NkP1XahKQve-14" value="获取所管理的仓信息" style="verticalAlign=bottom;endArrow=block;shadow=0;strokeWidth=1;" edge="1" parent="1" target="3nuBFxr9cyL0pnOWT2aG-5">
          <mxGeometry relative="1" as="geometry">
            <mxPoint x="620" y="234.5" as="sourcePoint" />
            <mxPoint x="881" y="234.51999999999998" as="targetPoint" />
          </mxGeometry>
        </mxCell>
        <mxCell id="IaG24eW45NkP1XahKQve-15" value="" style="verticalAlign=bottom;endArrow=block;shadow=0;strokeWidth=1;" edge="1" parent="1">
          <mxGeometry relative="1" as="geometry">
            <mxPoint x="360.5" y="234.5" as="sourcePoint" />
            <mxPoint x="180" y="235" as="targetPoint" />
          </mxGeometry>
        </mxCell>
      </root>
    </mxGraphModel>
  </diagram>
</mxfile>
